<svg height="512pt" viewBox="-63 0 511 512" width="512pt" xmlns="http://www.w3.org/2000/svg"><path d="m369.929688 241.722656h-198.8125c-8.53125 0-15.453126 6.917969-15.453126 15.453125v239.371094c0 8.535156 6.921876 15.453125 15.453126 15.453125h198.8125c8.53125 0 15.453124-6.917969 15.453124-15.453125v-239.371094c0-8.535156-6.921874-15.453125-15.453124-15.453125zm0 0" fill="#ffaf5c"/><path d="m223.914062 394.269531c-18.265624-35.65625-14.140624-42.359375-5.359374-56.203125h-.003907c4.199219-6.605468 6.640625-14.4375 6.640625-22.84375 0-37.960937-44.085937 2.34375-67.640625 2.34375-.609375 0-1.242187-.15625-1.886719-.441406v179.421875c0 8.53125 6.921876 15.453125 15.453126 15.453125h13.355468c30.488282-10.367188 50.910156-32.121094 50.910156-70.199219 0-17.128906-4.15625-33.277343-11.480468-47.535156zm0 0" fill="#d67f3e"/><path d="m182.121094 475.242188v-196.761719c0-5.6875 4.613281-10.300781 10.304687-10.300781h156.195313c5.691406 0 10.304687 4.613281 10.304687 10.300781v196.761719c0 5.6875-4.613281 10.300781-10.304687 10.300781h-156.195313c-5.691406 0-10.304687-4.613281-10.304687-10.300781zm0 0" fill="#4a4a68"/><path d="m223.914062 394.269531c-18.265624-35.65625-14.140624-42.359375-5.359374-56.203125h-.003907c4.199219-6.605468 6.640625-14.4375 6.640625-22.84375 0-26.753906-21.894531-14.632812-43.070312-5.144531v165.160156c0 5.691407 4.613281 10.304688 10.304687 10.304688h30.230469c8.109375-11.253907 12.726562-25.652344 12.726562-43.742188 0-17.128906-4.15625-33.277343-11.480468-47.535156zm0 0" fill="#333356"/><path d="m348.621094 268.179688h-156.195313c-5.691406 0-10.304687 4.613281-10.304687 10.300781v43.085937h176.800781v-43.085937c.003906-5.6875-4.609375-10.300781-10.300781-10.300781zm0 0" fill="#fffddc"/><path d="m225.191406 315.222656c0-26.75-21.894531-14.632812-43.070312-5.144531v11.488281h42.59375c.3125-2.070312.476562-4.1875.476562-6.34375zm0 0" fill="#ccc39e"/><path d="m323.964844 302.371094h-1.03125c-4.144532 0-7.5-3.355469-7.5-7.5 0-4.140625 3.355468-7.5 7.5-7.5h1.03125c4.140625 0 7.5 3.359375 7.5 7.5 0 4.144531-3.359375 7.5-7.5 7.5zm0 0" fill="#e8626c"/><path d="m287.972656 309.359375c-4.140625 0-7.5-3.359375-7.5-7.5v-13.972656c0-4.140625 3.359375-7.5 7.5-7.5 4.144532 0 7.5 3.359375 7.5 7.5v13.972656c0 4.140625-3.355468 7.5-7.5 7.5zm0 0" fill="#4a4a68"/><path d="m253.847656 309.359375c-4.140625 0-7.5-3.359375-7.5-7.5v-13.972656c0-4.140625 3.359375-7.5 7.5-7.5 4.144532 0 7.5 3.359375 7.5 7.5v13.972656c0 4.140625-3.355468 7.5-7.5 7.5zm0 0" fill="#4a4a68"/><path d="m219.726562 309.359375c-4.144531 0-7.5-3.359375-7.5-7.5v-13.972656c0-4.140625 3.355469-7.5 7.5-7.5 4.140626 0 7.5 3.359375 7.5 7.5v13.972656c0 4.140625-3.359374 7.5-7.5 7.5zm0 0" fill="#4a4a68"/><path d="m197.496094 386.632812.011718.003907c-18.269531-35.65625-14.140624-42.359375-5.359374-56.199219l-.007813-.003906c4.203125-6.605469 6.644531-14.4375 6.644531-22.84375 0-37.960938-44.089844 2.34375-67.640625 2.34375-10.574219 0-26.40625-44.988282-26.40625-44.988282h-51.402343c-23.550782 0-42.644532 19.089844-42.644532 42.644532 0 8.40625 2.445313 16.238281 6.644532 22.84375l-.007813.003906c8.78125 13.839844 12.90625 20.542969-5.359375 56.199219l.011719-.003907c-7.324219 14.257813-11.480469 30.40625-11.480469 47.535157 0 57.570312 46.667969 77.832031 104.238281 77.832031 57.570313 0 104.238281-20.261719 104.238281-77.832031 0-17.128907-4.160156-33.277344-11.480468-47.535157zm0 0" fill="#40c6c2"/><path d="m197.496094 386.632812.011718.003907c-18.269531-35.65625-14.140624-42.359375-5.359374-56.199219l-.007813-.003906c4.203125-6.605469 6.644531-14.4375 6.644531-22.84375 0-22.027344-14.84375-17.699219-31.90625-10.191406 1.074219 2.480468 1.667969 5.808593 1.667969 10.191406 0 8.40625-2.441406 16.238281-6.640625 22.84375l.003906.003906c-8.777344 13.839844-12.90625 20.542969 5.363282 56.199219l-.011719-.003907c7.320312 14.257813 11.476562 30.40625 11.476562 47.535157 0 52.433593-38.714843 73.917969-89.117187 77.332031 4.933594.335938 9.980468.5 15.117187.5 57.570313 0 104.238281-20.261719 104.238281-77.832031 0-17.128907-4.160156-33.277344-11.480468-47.535157zm0 0" fill="#1f9b92"/><path d="m78.332031 108.519531v217.625c0 8.535157 6.917969 15.453125 15.453125 15.453125h21.90625c8.535156 0 15.453125-6.917968 15.453125-15.453125v-217.625zm0 0" fill="#4a4a68"/><path d="m110.144531 108.519531v217.625c0 8.535157-6.917969 15.453125-15.453125 15.453125h21c8.535156 0 15.453125-6.917968 15.453125-15.453125v-217.625zm0 0" fill="#333356"/><path d="m78.332031 159.289062h52.8125v15h-52.8125zm0 0" fill="#333356"/><path d="m78.332031 217.558594h52.8125v15h-52.8125zm0 0" fill="#333356"/><path d="m78.332031 275.828125h52.8125v15h-52.8125zm0 0" fill="#333356"/><path d="m83.976562 3.21875-24.859374 61.386719c-1.820313 4.503906-1.421876 9.601562 1.082031 13.765625l18.132812 30.148437 24.96875 11 27.84375-11 18.132813-30.148437c2.503906-4.164063 2.902344-9.261719 1.078125-13.765625l-24.855469-61.386719c-.789062-1.945312-2.679688-3.21875-4.777344-3.21875h-31.972656c-2.097656 0-3.984375 1.273438-4.773438 3.21875zm0 0" fill="#40c6c2"/><path d="m150.355469 64.605469-24.855469-61.386719c-.789062-1.945312-2.675781-3.21875-4.777344-3.21875h-20.339844c2.097657 0 3.988282 1.273438 4.773438 3.21875l24.859375 61.386719c1.824219 4.503906 1.421875 9.601562-1.082031 13.765625l-18.128906 30.148437h20.339843l18.128907-30.148437c2.507812-4.164063 2.90625-9.261719 1.082031-13.765625zm0 0" fill="#1f9b92"/><g fill="#fffddc"><path d="m92.71875 43.726562c-4.140625 0-7.5-3.355468-7.5-7.5v-1.027343c0-4.144531 3.359375-7.5 7.5-7.5s7.5 3.355469 7.5 7.5v1.027343c0 4.144532-3.359375 7.5-7.5 7.5zm0 0"/><path d="m116.757812 43.726562c-4.144531 0-7.5-3.355468-7.5-7.5v-1.027343c0-4.144531 3.355469-7.5 7.5-7.5 4.140626 0 7.5 3.355469 7.5 7.5v1.027343c0 4.144532-3.359374 7.5-7.5 7.5zm0 0"/><path d="m92.71875 67.765625c-4.140625 0-7.5-3.359375-7.5-7.5v-1.03125c0-4.140625 3.359375-7.5 7.5-7.5s7.5 3.359375 7.5 7.5v1.03125c0 4.140625-3.359375 7.5-7.5 7.5zm0 0"/><path d="m116.757812 67.765625c-4.144531 0-7.5-3.359375-7.5-7.5v-1.03125c0-4.140625 3.355469-7.5 7.5-7.5 4.140626 0 7.5 3.359375 7.5 7.5v1.03125c0 4.140625-3.359374 7.5-7.5 7.5zm0 0"/><path d="m92.71875 91.804688c-4.140625 0-7.5-3.359376-7.5-7.5v-1.03125c0-4.140626 3.359375-7.5 7.5-7.5s7.5 3.359374 7.5 7.5v1.03125c0 4.140624-3.359375 7.5-7.5 7.5zm0 0"/><path d="m116.757812 91.804688c-4.144531 0-7.5-3.359376-7.5-7.5v-1.03125c0-4.140626 3.355469-7.5 7.5-7.5 4.140626 0 7.5 3.359374 7.5 7.5v1.03125c0 4.140624-3.359374 7.5-7.5 7.5zm0 0"/><path d="m131.359375 411.558594h-53.242187c-2.84375 0-5.152344-2.308594-5.152344-5.152344v-22.765625c0-2.84375 2.308594-5.152344 5.152344-5.152344h53.242187c2.84375 0 5.152344 2.308594 5.152344 5.152344v22.765625c0 2.84375-2.308594 5.152344-5.152344 5.152344zm0 0"/></g><path d="m186.945312 433.308594c0 6.445312-5.226562 11.671875-11.671874 11.671875-6.449219 0-11.675782-5.226563-11.675782-11.671875 0-6.449219 5.226563-11.675782 11.675782-11.675782 6.445312 0 11.671874 5.226563 11.671874 11.675782zm0 0" fill="#ebf9ff"/><path d="m155.664062 473.867188c0 6.449218-5.226562 11.675781-11.671874 11.675781-6.449219 0-11.675782-5.226563-11.675782-11.675781 0-6.449219 5.226563-11.675782 11.675782-11.675782 6.445312 0 11.671874 5.226563 11.671874 11.675782zm0 0" fill="#ebf9ff"/><path d="m337.773438 77.296875c-2.804688-2.40625-6.507813-3.464844-10.15625-2.90625l-76.898438 11.785156c-6.21875.957031-10.734375 6.214844-10.734375 12.507813v51.121094c-3.902344-2.0625-8.34375-3.234376-13.058594-3.234376-15.476562 0-28.0625 12.585938-28.0625 28.058594s12.585938 28.0625 28.0625 28.0625c15.472657 0 28.058594-12.589844 28.058594-28.0625v-73.929687l72.199219-11.066407v46.808594c-3.902344-2.0625-8.34375-3.238281-13.058594-3.238281-15.476562 0-28.0625 12.589844-28.0625 28.0625s12.585938 28.058594 28.0625 28.058594c15.472656 0 28.058594-12.585938 28.058594-28.058594v-74.371094c0-3.691406-1.605469-7.191406-4.410156-9.597656zm0 0" fill="#4a4a68"/><path d="m110.148438 217.558594h20.996093v15h-20.996093zm0 0" fill="#1f1f42"/><path d="m110.148438 275.828125h20.996093v15h-20.996093zm0 0" fill="#1f1f42"/><path d="m110.148438 159.289062h20.996093v15h-20.996093zm0 0" fill="#1f1f42"/></svg>